<svg width="62" height="62" viewBox="0 0 62 62" fill="none" xmlns="http://www.w3.org/2000/svg">
<path d="M0.999992 1H12.5385L16.5538 40.9231C16.7207 42.0236 17.2798 43.0268 18.1279 43.7477C18.976 44.4686 20.0562 44.8587 21.1692 44.8462H50.2462C51.2526 44.8987 52.2486 44.6203 53.082 44.0536C53.9154 43.4869 54.5404 42.663 54.8615 41.7077L61 23.2462" stroke="#000000" stroke-width="2" stroke-linecap="round" stroke-linejoin="round"/>
<path d="M49.4609 61C48.1864 61 47.1532 59.9668 47.1532 58.6923C47.1532 57.4178 48.1864 56.3846 49.4609 56.3846C50.7354 56.3846 51.7686 57.4178 51.7686 58.6923C51.7686 59.9668 50.7354 61 49.4609 61Z" stroke="#000000" stroke-width="2" stroke-linecap="round" stroke-linejoin="round"/>
<path d="M19.4609 61C18.1864 61 17.1532 59.9668 17.1532 58.6923C17.1532 57.4178 18.1864 56.3846 19.4609 56.3846C20.7354 56.3846 21.7686 57.4178 21.7686 58.6923C21.7686 59.9668 20.7354 61 19.4609 61Z" stroke="#000000" stroke-width="2" stroke-linecap="round" stroke-linejoin="round"/>
<path d="M24 35C25.8519 28.3333 32.8889 24.2592 39.926 26.1111C44 27.2222 47.3334 30.5555 48.8149 35" stroke="#000000" stroke-width="2" stroke-linecap="round" stroke-linejoin="round"/>
<path d="M28.0738 16.4815C27.6647 16.4815 27.333 16.1498 27.333 15.7407C27.333 15.3316 27.6647 15 28.0738 15" stroke="#000000" stroke-width="2" stroke-linecap="round" stroke-linejoin="round"/>
<path d="M28.0723 15.4815C27.52 15.4815 27.0723 15.9292 27.0723 16.4815C27.0723 17.0338 27.52 17.4815 28.0723 17.4815V15.4815ZM28.0723 14C27.52 14 27.0723 14.4477 27.0723 15C27.0723 15.5523 27.52 16 28.0723 16V14ZM28.0723 17.4815C29.0336 17.4815 29.813 16.7021 29.813 15.7407H27.813C27.813 15.5976 27.9291 15.4815 28.0723 15.4815V17.4815ZM29.813 15.7407C29.813 14.7794 29.0337 14 28.0723 14V16C27.9291 16 27.813 15.8839 27.813 15.7407H29.813Z" fill="#000000"/>
<path d="M44.3696 16.4815C43.9605 16.4815 43.6289 16.1498 43.6289 15.7407C43.6289 15.3316 43.9605 15 44.3696 15" stroke="#000000" stroke-width="2" stroke-linecap="round" stroke-linejoin="round"/>
<path d="M44.3701 15.4815C43.8178 15.4815 43.3701 15.9292 43.3701 16.4815C43.3701 17.0338 43.8178 17.4815 44.3701 17.4815V15.4815ZM44.3701 14C43.8178 14 43.3701 14.4477 43.3701 15C43.3701 15.5523 43.8178 16 44.3701 16V14ZM44.3701 17.4815C45.3315 17.4815 46.1109 16.7021 46.1109 15.7407H44.1109C44.1109 15.5976 44.2269 15.4815 44.3701 15.4815V17.4815ZM46.1109 15.7407C46.1109 14.7794 45.3315 14 44.3701 14V16C44.2269 16 44.1109 15.8839 44.1109 15.7407H46.1109Z" fill="#000000"/>
</svg>
